# xmcd
#
# Track frame offsets:
#	183
#	12625
#	23025
#	35723
#	46083
#	60875
#	75163
#	87950
#	98778
#	120625
#	135455
#	148983
#	165450
#	178635
#	200400
#	219055
#	240398
#	251328
#	265148
#	280105
#
# Disc length: 3982
#
# Revision: 12
# Processed by: cddbd v1.5.1PL0 Copyright (c) Steve Scherf et al.
# Submitted via: EasyCDDAExtractor 5.0.6
# Normalized: r11:DSETVAR1
#
DISCID=fe0f8c14
DTITLE=Various Artist - Dance 1 - Disc 2
DYEAR=1900
DGENRE=Blues
TTITLE0=Aretha Franklin - Chain of Fools
TTITLE1=Otis Redding - Hard to Handle
TTITLE2=Johnny Taylor - Who' Making Love
TTITLE3=Willie Mitchell - Soul Serenade
TTITLE4=Booker T and The MG's - Time is Tight
TTITLE5=Rufus Thomas - Do the Funky Chicken
TTITLE6=Curtis Mayfield - Move On Up
TTITLE7=The Tams - Hey Girl Don't Bother Me
TTITLE8=Love Unlimited - Walking in the rain with the one I love
TTITLE9=Donnie Elbert - Where did our love go
TTITLE10=Sly and the Family Stone - Family Affair
TTITLE11=Donny Elbert - A little bit of leather
TTITLE12=Ike and Tina Turner - Nutbush City Limits
TTITLE13=Timmy Thomas - Why can't we live together
TTITLE14=The Detroit Spinners - Could it be I'm falling in love
TTITLE15=Staple Singers - Respect Yourself
TTITLE16=Robert Knight - Love on a Mountain Top
TTITLE17=KC and The Sunshine Band - Sound Your Funky Horn
TTITLE18=George McRae - Rock Your Baby
TTITLE19=Love Unlimited Orchestra - Love's Theme
EXTD=
EXTT0=
EXTT1=
EXTT2=
EXTT3=
EXTT4=
EXTT5=
EXTT6=
EXTT7=
EXTT8=
EXTT9=
EXTT10=
EXTT11=
EXTT12=
EXTT13=
EXTT14=
EXTT15=
EXTT16=
EXTT17=
EXTT18=
EXTT19=
PLAYORDER=
